<?xml version="1.0" standalone="no"?>
<!DOCTYPE svg PUBLIC "-//W3C//DTD SVG 20010904//EN"
 "http://www.w3.org/TR/2001/REC-SVG-20010904/DTD/svg10.dtd">
<svg version="1.0" xmlns="http://www.w3.org/2000/svg"
 width="64.000000pt" height="64.000000pt" viewBox="0 0 64.000000 64.000000"
 preserveAspectRatio="xMidYMid meet">

<g transform="translate(0.000000,64.000000) scale(0.100000,-0.100000)"
fill="#000000" stroke="none">
<path d="M40 300 l0 -220 40 0 40 0 0 220 0 220 -40 0 -40 0 0 -220z"/>
<path d="M160 355 c0 -158 1 -165 20 -165 19 0 20 7 20 165 0 158 -1 165 -20
165 -19 0 -20 -7 -20 -165z"/>
<path d="M240 355 c0 -158 1 -165 20 -165 19 0 20 7 20 165 0 158 -1 165 -20
165 -19 0 -20 -7 -20 -165z"/>
<path d="M320 355 c0 -158 1 -165 20 -165 19 0 20 7 20 165 0 158 -1 165 -20
165 -19 0 -20 -7 -20 -165z"/>
<path d="M400 355 c0 -158 1 -165 20 -165 19 0 20 7 20 165 0 158 -1 165 -20
165 -19 0 -20 -7 -20 -165z"/>
<path d="M480 355 c0 -158 1 -165 20 -165 19 0 20 7 20 165 0 158 -1 165 -20
165 -19 0 -20 -7 -20 -165z"/>
<path d="M560 300 c0 -213 1 -220 20 -220 19 0 20 7 20 220 0 213 -1 220 -20
220 -19 0 -20 -7 -20 -220z"/>
<path d="M157 144 c-11 -11 -8 -52 3 -59 22 -14 49 5 47 33 -2 27 -33 43 -50
26z"/>
<path d="M233 143 c-19 -7 -16 -50 3 -57 20 -8 44 11 44 34 0 14 -23 34 -33
29 -1 0 -8 -3 -14 -6z m27 -28 c0 -8 -4 -15 -10 -15 -5 0 -10 7 -10 15 0 8 5
15 10 15 6 0 10 -7 10 -15z"/>
<path d="M290 120 c0 -33 24 -50 43 -31 8 8 7 11 -6 11 -11 0 -17 8 -17 25 0
14 -4 25 -10 25 -5 0 -10 -14 -10 -30z"/>
<path d="M350 115 c0 -28 4 -35 19 -35 25 0 38 20 14 21 -16 0 -16 1 2 8 l20
8 -20 5 c-16 5 -17 6 -2 7 27 2 20 21 -8 21 -22 0 -25 -4 -25 -35z"/>
<path d="M410 140 c0 -5 4 -10 9 -10 5 0 12 -12 14 -27 l4 -28 2 28 c0 15 6
27 11 27 6 0 10 5 10 10 0 6 -11 10 -25 10 -14 0 -25 -4 -25 -10z"/>
<path d="M483 143 c-19 -7 -16 -50 4 -57 24 -10 51 20 37 41 -12 19 -23 24
-41 16z m27 -28 c0 -8 -4 -15 -10 -15 -5 0 -10 7 -10 15 0 8 5 15 10 15 6 0
10 -7 10 -15z"/>
</g>
</svg>
